<?xml version="1.0" encoding="UTF-8"?>
<svg id="Layer_1" data-name="Layer 1" xmlns="http://www.w3.org/2000/svg" viewBox="0 0 1280 800">
  <defs>
    <style>
      .cls-1 {
        fill: #fff;
      }

      .cls-2 {
        fill: #245b3b;
      }
    </style>
  </defs>
  <rect class="cls-2" width="1280" height="800"/>
  <g>
    <g>
      <path class="cls-1" d="M382.56,414.15h-4.03c-4.95,0-9.39-1.01-13.31-3.02-3.92-2.01-6.87-4.63-8.83-7.87-1.45-2.44-2.17-5.01-2.17-7.69v-17.04c0-2.52.64-4.91,1.94-7.16,1.29-2.25,3.04-4.22,5.26-5.92,2.22-1.69,4.8-3.04,7.74-4.02,2.94-.99,6.06-1.48,9.37-1.48h82.52c3.3,0,6.42.49,9.37,1.48,2.94.99,5.52,2.33,7.74,4.02,2.22,1.7,3.97,3.67,5.26,5.92,1.29,2.25,1.94,4.63,1.94,7.16v6.51h-28.33v-3.31h-74.47v10.65h78.5c4.95,0,9.39,1.01,13.31,3.02,3.92,2.01,6.86,4.63,8.83,7.87,1.44,2.45,2.17,5.01,2.17,7.69v17.04c0,2.52-.65,4.91-1.94,7.16-1.29,2.25-3.05,4.22-5.26,5.92-2.22,1.7-4.8,3.04-7.74,4.02-2.94.99-6.07,1.48-9.37,1.48h-82.52c-3.3,0-6.42-.49-9.37-1.48-2.94-.99-5.52-2.33-7.74-4.02-2.22-1.7-3.97-3.67-5.26-5.92-1.29-2.25-1.94-4.63-1.94-7.16v-6.51h28.33v3.31h74.47v-10.65h-74.47Z"/>
      <path class="cls-1" d="M525.15,446.57c-3.41,0-6.58-.49-9.52-1.48-2.94-.99-5.5-2.33-7.66-4.02-2.17-1.7-3.9-3.67-5.19-5.92-1.29-2.25-1.94-4.63-1.94-7.16v-17.27c0-2.52.64-4.91,1.94-7.16,1.29-2.25,3.02-4.22,5.19-5.92,2.17-1.7,4.72-3.04,7.66-4.02,2.94-.99,6.12-1.48,9.52-1.48h78.5v-10.41h-97.23v-21.77h101.26c3.41,0,6.58.49,9.52,1.48,2.94.99,5.5,2.33,7.66,4.02,2.17,1.7,3.89,3.67,5.19,5.92,1.29,2.25,1.94,4.63,1.94,7.16v68.02h-106.83ZM603.65,413.92h-74.32v10.88h74.32v-10.88Z"/>
      <path class="cls-1" d="M647.46,320.7h28.33v125.87h-28.33v-125.87Z"/>
      <path class="cls-1" d="M822.26,414.39h-102.49v10.41h97.08v21.77h-101.26c-3.3,0-6.42-.49-9.37-1.48-2.94-.99-5.52-2.33-7.74-4.02-2.22-1.7-3.97-3.67-5.26-5.92-1.29-2.25-1.94-4.63-1.94-7.16v-51.82c.41-2.29,1.32-4.42,2.71-6.39,1.39-1.97,3.15-3.69,5.26-5.15,2.11-1.46,4.54-2.6,7.28-3.43,2.73-.83,5.65-1.24,8.75-1.24h82.83c3.41,0,6.58.49,9.52,1.48,2.94.99,5.5,2.33,7.66,4.02,2.17,1.7,3.89,3.67,5.19,5.92,1.29,2.25,1.94,4.63,1.94,7.16,0,6.47-.03,12.5-.08,18.1-.05,5.6-.08,11.52-.08,17.75ZM719.77,381.74v10.88h74.32v-10.88h-74.32Z"/>
      <path class="cls-1" d="M944.88,359.97c3.3,0,6.43.49,9.37,1.48,2.94.99,5.52,2.33,7.74,4.02,2.22,1.7,3.97,3.67,5.26,5.92,1.29,2.25,1.93,4.63,1.93,7.16v10.41h-28.49v-7.22h-74.32v43.06h74.32v-7.22h28.49v10.41c0,2.52-.65,4.91-1.93,7.16-1.29,2.25-3.05,4.22-5.26,5.92-2.22,1.7-4.8,3.04-7.74,4.02-2.94.99-6.06,1.48-9.37,1.48h-82.68c-3.3,0-6.42-.49-9.37-1.48-2.94-.99-5.52-2.33-7.74-4.02-2.22-1.7-3.97-3.67-5.26-5.92-1.29-2.25-1.94-4.63-1.94-7.16v-49.45c0-2.52.64-4.91,1.94-7.16,1.29-2.25,3.04-4.22,5.26-5.92,2.22-1.69,4.8-3.04,7.74-4.02,2.94-.99,6.06-1.48,9.37-1.48h82.68Z"/>
    </g>
    <g>
      <path class="cls-1" d="M728.75,474.75v-4.39h26.14v4.39h-10.54v29.39h-5.08v-29.39h-10.52Z"/>
      <path class="cls-1" d="M765.3,504.14v-33.78h12.04c2.62,0,4.79.45,6.52,1.35,1.73.9,3.03,2.15,3.88,3.74.86,1.59,1.29,3.42,1.29,5.5s-.43,3.88-1.29,5.45c-.86,1.57-2.16,2.78-3.89,3.65-1.73.87-3.91,1.3-6.52,1.3h-9.12v-4.39h8.66c1.65,0,2.99-.24,4.03-.71s1.8-1.16,2.28-2.06c.48-.9.73-1.98.73-3.25s-.25-2.38-.73-3.32-1.25-1.65-2.29-2.15c-1.04-.5-2.4-.75-4.08-.75h-6.4v29.41h-5.1ZM781.97,488.9l8.35,15.24h-5.81l-8.18-15.24h5.64Z"/>
      <path class="cls-1" d="M802.75,504.14h-5.41l12.16-33.78h5.89l12.16,33.78h-5.41l-9.55-27.64h-.26l-9.57,27.64ZM803.65,490.91h17.55v4.29h-17.55v-4.29Z"/>
      <path class="cls-1" d="M847.98,504.14h-10.94v-33.78h11.28c3.31,0,6.15.67,8.53,2.02s4.2,3.28,5.47,5.79c1.27,2.51,1.9,5.52,1.9,9.03s-.64,6.54-1.92,9.07c-1.28,2.53-3.13,4.47-5.55,5.83-2.42,1.36-5.34,2.04-8.77,2.04ZM842.14,499.69h5.56c2.57,0,4.71-.49,6.42-1.46,1.7-.97,2.98-2.39,3.83-4.24.85-1.85,1.27-4.12,1.27-6.79s-.42-4.9-1.26-6.75c-.84-1.85-2.09-3.25-3.75-4.21-1.66-.96-3.72-1.44-6.19-1.44h-5.87v24.87Z"/>
      <path class="cls-1" d="M880.3,470.36v33.78h-5.1v-33.78h5.1Z"/>
      <path class="cls-1" d="M919.63,470.36v33.78h-4.68l-17.17-24.77h-.31v24.77h-5.1v-33.78h4.72l17.19,24.81h.31v-24.81h5.05Z"/>
      <path class="cls-1" d="M954.56,481.03c-.32-1-.75-1.9-1.28-2.7s-1.17-1.48-1.9-2.04c-.74-.57-1.58-1-2.52-1.29s-1.97-.45-3.09-.45c-1.9,0-3.62.49-5.15,1.47s-2.74,2.41-3.62,4.3c-.89,1.89-1.33,4.19-1.33,6.92s.45,5.05,1.34,6.94c.89,1.89,2.11,3.33,3.66,4.3,1.55.98,3.31,1.47,5.29,1.47,1.84,0,3.44-.37,4.81-1.12,1.37-.75,2.43-1.81,3.18-3.17.75-1.37,1.13-2.98,1.13-4.84l1.32.25h-9.67v-4.21h13.28v3.84c0,2.84-.6,5.3-1.81,7.38-1.2,2.08-2.86,3.69-4.98,4.82-2.12,1.13-4.54,1.7-7.27,1.7-3.06,0-5.74-.7-8.04-2.11-2.3-1.41-4.1-3.41-5.39-6-1.29-2.59-1.93-5.67-1.93-9.23,0-2.69.37-5.11,1.12-7.26.75-2.14,1.8-3.97,3.16-5.47,1.36-1.5,2.96-2.65,4.8-3.45,1.84-.8,3.86-1.2,6.04-1.2,1.83,0,3.53.27,5.1.81,1.58.54,2.99,1.3,4.22,2.29,1.24.99,2.26,2.16,3.08,3.52.81,1.36,1.36,2.86,1.65,4.51h-5.23Z"/>
    </g>
  </g>
</svg>